<?xml version="1.0" encoding="UTF-8"?>
<svg width="40px" height="40px" viewBox="0 0 40 40" version="1.1" xmlns="http://www.w3.org/2000/svg" xmlns:xlink="http://www.w3.org/1999/xlink">
    <!-- Generator: Sketch 51.2 (57519) - http://www.bohemiancoding.com/sketch -->
    <title>twitter</title>
    <desc>Created with Sketch.</desc>
    <defs></defs>
    <g id="Symbols" stroke="none" stroke-width="1" fill="none" fill-rule="evenodd">
        <g id="Footer" transform="translate(-1367.000000, -243.000000)">
            <g id="footer">
                <g id="social" transform="translate(1367.000000, 75.000000)">
                    <g id="twitter" transform="translate(0.000000, 168.000000)">
                        <g id="Group-3" fill="#1A237E">
                            <path d="M39.99984,20.00004 C39.99984,31.04564 31.04544,40.00004 19.99984,40.00004 C8.95424,40.00004 -0.00016,31.04564 -0.00016,20.00004 C-0.00016,8.95444 8.95424,3.99999999e-05 19.99984,3.99999999e-05 C31.04544,3.99999999e-05 39.99984,8.95444 39.99984,20.00004" id="Fill-1"></path>
                        </g>
                        <path d="M32,13.1307964 C31.1908889,13.4921499 30.3210741,13.736607 29.4080741,13.8465307 C30.3398148,13.2837872 31.0556296,12.3933235 31.3925556,11.332232 C30.5202963,11.8531389 29.5543333,12.2313091 28.5264444,12.4347499 C27.7026667,11.5516691 26.5297407,11 25.2317407,11 C22.7392222,11 20.7180741,13.0344081 20.7180741,15.5437849 C20.7180741,15.9002165 20.758,16.2468041 20.835,16.5794463 C17.084,16.389951 13.7579259,14.5811325 11.5318519,11.8318104 C11.1435926,12.502837 10.9207407,13.283377 10.9207407,14.1160077 C10.9207407,15.692674 11.7176296,17.0835365 12.9284444,17.8985302 C12.1885926,17.8747408 11.4927407,17.6704797 10.8844815,17.3300444 C10.8836667,17.3493221 10.8836667,17.3681896 10.8836667,17.3870571 C10.8836667,19.5888117 12.4395556,21.4255212 14.5047037,21.8430671 C14.1258148,21.9468383 13.726963,22.0022103 13.3154815,22.0022103 C13.0245926,22.0022103 12.7414444,21.9739091 12.466037,21.9209981 C13.0404815,23.7261251 14.7075926,25.039877 16.6822963,25.0767916 C15.1374074,26.2953857 13.1916296,27.0217842 11.0771852,27.0217842 C10.7125556,27.0217842 10.3532222,27.0000456 10,26.958209 C11.9975185,28.247351 14.3702593,29 16.919,29 C25.2211481,29 29.7612963,22.0756295 29.7612963,16.0708443 C29.7612963,15.873966 29.7568148,15.6779082 29.7482593,15.4830808 C30.6298889,14.8424063 31.3954074,14.0421784 32,13.1307964" id="Fill-4" fill="#FFFFFF"></path>
                    </g>
                </g>
            </g>
        </g>
    </g>
</svg>